# xmcd
#
# Track frame offsets: 
#        150
#        25121
#        49524
#        67989
#        89674
#        113831
#        126292
#        142080
#        162407
#        176728
#        199019
#        220966
#        234362
#        261689
#        291346
#
# Disc length: 4142 seconds
#
# Revision: 0
# Processed by: cddbd v1.5.2PL0 Copyright (c) Steve Scherf et al.
# Submitted via: ExactAudioCopy v1.0b3
#
DISCID=e9102c0f
DTITLE=The Sword - Apogryphon
DYEAR=2012
DGENRE=Stoner Rock
TTITLE0=The Veil of Isis
TTITLE1=Cloak of Feathers
TTITLE2=Arcane Montane
TTITLE3=The Hidden Masters
TTITLE4=Dying Earth
TTITLE5=Execrator
TTITLE6=Seven Sisters
TTITLE7=Hawks and Serpents
TTITLE8=Eyes of the Stormwitch
TTITLE9=Apocryphon
TTITLE10=Arrows in the Dark (live at Emo's)
TTITLE11=Barael's Blade (live at Emo's)
TTITLE12=The Chronomancer II: Nemesis (live at Stubb's)
TTITLE13=Ebethron (live at Stubb's)
TTITLE14=Cheap Sunglasses
EXTD=
EXTT0=
EXTT1=
EXTT2=
EXTT3=
EXTT4=
EXTT5=
EXTT6=
EXTT7=
EXTT8=
EXTT9=
EXTT10=
EXTT11=
EXTT12=
EXTT13=
EXTT14=
PLAYORDER=
